<?xml version="1.0" encoding="utf-8"?>
<!-- Generator: Adobe Illustrator 17.1.0, SVG Export Plug-In . SVG Version: 6.00 Build 0)  -->
<!DOCTYPE svg PUBLIC "-//W3C//DTD SVG 1.1//EN" "http://www.w3.org/Graphics/SVG/1.1/DTD/svg11.dtd">
<svg version="1.1" id="Ebene_1" xmlns="http://www.w3.org/2000/svg" xmlns:xlink="http://www.w3.org/1999/xlink" x="0px" y="0px"
	 viewBox="0 0 90.3 119.4" enable-background="new 0 0 90.3 119.4" xml:space="preserve">
<path fill="none" stroke="#000000" stroke-width="2" stroke-miterlimit="10" d="M47,50.1c-2.3,0.4-4.8,0.3-6.8-0.4
	c-2-0.8-3-2.3-2-3.6c2.5-0.7,5.2-1.2,8-1.3c2.1-0.1,4.5-0.1,6.2,0.7c1.7,0.7,2.6,2.3,1.2,3.3c-3.3,0.7-6.9,1.4-10.4,1
	c-3.5-0.5-6.5-2.6-5.2-4.5c1.5-2.2,6.5-2.3,10.5-2.1c1.7,0.1,3.5,0.2,5.2,0.3c0.5,0,1,0.1,1.5,0.2c2,0.6,0.5,2.5-1.5,3.1
	c-2.9,0.9-6.3,0.8-9.5,0.6c-1.5-1.4-2.9-2.8-4.4-4.2c-0.5-0.5-1-1-1-1.6c0.1-1.1,2.4-1.7,4.3-2c3.6-0.4,7.3-0.5,10.9-0.3
	C54,40.1,54,41,53.9,42c-2.6,0.6-5.4,1.2-8.2,1.1s-5.8-1-6.7-2.5c-0.9-1.5,0.5-3.1,1.6-4.6c2.9-3.7,5.1-7.5,6.5-11.5
	c0.6-1.7,1-3.6-0.3-5.1s-5-2.5-7.4-1.5c-1.1,4.1-0.5,8.4,1.9,12.3c0.3,0.7,0.6,1.4,0.8,2.2"/>
<path fill="none" stroke="#000000" stroke-width="2" stroke-miterlimit="10" d="M82.4,72.5c1.3,5.6,2.1,11.6,0.2,17
	c-2.4,6.8-9,11.6-15.9,13.8s-14.3,2.2-21.6,2.2c-5.3,0-10.8-0.1-15.4-2.6c-3.2-1.8-5.7-4.6-7.7-7.7c-6.4-9.8-8.2-22.5-4.8-33.7
	C28.5,52.3,43.8,48.3,58,50.8c8.4,1.5,17,5.5,21.2,13C80.8,66.5,81.7,69.5,82.4,72.5z"/>
</svg>
