<?xml version="1.0" encoding="utf-8"?>
<!-- Generator: Adobe Illustrator 17.1.0, SVG Export Plug-In . SVG Version: 6.00 Build 0)  -->
<!DOCTYPE svg PUBLIC "-//W3C//DTD SVG 1.1//EN" "http://www.w3.org/Graphics/SVG/1.1/DTD/svg11.dtd">
<svg version="1.1" id="Ebene_1" xmlns="http://www.w3.org/2000/svg" xmlns:xlink="http://www.w3.org/1999/xlink" x="0px" y="0px"
	 viewBox="0 0 253 78" enable-background="new 0 0 253 78" xml:space="preserve">
<path fill="none" stroke="#000000" stroke-width="1.1151" stroke-miterlimit="10" d="M12.5,8.4c0.7-0.7,2.1-0.7,2.4-0.5
	c0.3,0.2,0.4,0.5,0.5,0.8c0.2,0.9,0.3,2.1,0.5,3.5c0.2,1.4,0.3,3,0.4,4.6c0.1,1.6,0.2,3.2,0.3,4.8c0.1,1.6,0.1,2.9,0.2,4
	c0.6-0.1,1.3-0.1,2.1-0.2c0.8-0.1,1.7-0.2,2.7-0.3c1-0.1,2-0.2,3.1-0.2c1.1-0.1,2.1-0.1,3.1-0.1c2.2,0,4.1,0.1,5.6,0.3
	c1.5,0.2,2.6,0.3,3.2,0.4c0-1.2-0.1-2.5-0.2-4.1c-0.1-1.5-0.2-3.1-0.3-4.6c-0.1-1.5-0.3-3-0.4-4.4s-0.3-2.5-0.4-3.3
	c0-0.3,0.1-0.7,0.4-0.9c0.2-0.3,0.6-0.5,1.1-0.5c0.3,0,0.7,0.1,0.9,0.3c0.3,0.2,0.4,0.5,0.5,0.8c0.2,1,0.4,2.3,0.6,3.9
	c0.2,1.6,0.3,3.3,0.5,5.1c0.1,1.8,0.3,3.5,0.3,5.1c0.1,1.7,0.1,3,0.1,3.9c0,0.7,0,1.6,0.1,2.8c0.1,1.2,0.2,2.6,0.3,4
	c0.1,1.4,0.3,2.9,0.4,4.4c0.1,1.5,0.3,2.9,0.4,4.1c0.1,1.2,0.2,2.3,0.3,3.1c0.1,0.8,0.1,1.2,0.1,1.3c0,0.4-0.1,0.7-0.4,1
	c-0.2,0.3-0.6,0.4-1.1,0.5c-0.4,0-0.7-0.1-1-0.4c-0.3-0.2-0.4-0.6-0.4-0.9c0-0.1,0-0.5-0.1-1.2c-0.1-0.7-0.2-1.5-0.3-2.6
	c-0.1-1-0.2-2.2-0.4-3.5c-0.1-1.3-0.3-2.6-0.4-3.9c-0.1-1.3-0.2-2.6-0.3-3.8c-0.1-1.2-0.2-2.3-0.2-3.2c0,0-0.8-0.1-2.4-0.4
	c-1.6-0.2-3.7-0.4-6.4-0.4c-1,0-2,0-3.1,0.1c-1.1,0.1-2.1,0.1-3.1,0.2c-1,0.1-1.9,0.2-2.7,0.3c-0.8,0.1-1.5,0.2-2.1,0.2
	c0,0.9,0.1,2,0.2,3.2c0.1,1.2,0.2,2.5,0.3,3.8c0.1,1.3,0.2,2.6,0.4,3.9c0.1,1.3,0.2,2.4,0.3,3.4c0.1,1,0.2,1.9,0.3,2.5
	c0.1,0.6,0.1,1,0.1,1c0,0.4-0.1,0.7-0.4,1c-0.2,0.3-0.6,0.4-1.1,0.5c-0.4,0-0.7-0.1-1-0.4c-0.3-0.2-0.4-0.6-0.4-0.9
	c0-0.1-0.1-0.6-0.2-1.4c-0.1-0.8-0.2-1.9-0.3-3.1c-0.1-1.2-0.3-2.6-0.4-4.1c-0.1-1.5-0.3-3-0.4-4.4c-0.1-1.4-0.2-2.8-0.3-4
	c-0.1-1.2-0.1-2.2-0.1-2.9c0-1,0-2.4-0.1-4c-0.1-1.6-0.2-3.3-0.3-5c-0.1-1.7-0.3-3.4-0.5-4.9c-0.2-1.6-0.3-2.8-0.5-3.8"/>
<path fill="none" stroke="#000000" stroke-width="1.1151" stroke-miterlimit="10" d="M68.3,23c0.3,1.6,0.5,3.8,0.5,6.5
	c0,0.6,0,1.1-0.1,1.7c-0.1,0.6-0.1,1.1-0.2,1.7c0.3,2.2,0.7,4.1,1.1,5.8c0.4,1.7,0.8,3.2,1.2,4.3c0.4,1.2,0.7,2.1,0.9,2.7
	c0.3,0.6,0.4,1,0.4,1c0,0.1,0.1,0.2,0.1,0.3c0,0.1,0,0.2,0,0.3c0,0.6-0.3,1.1-0.8,1.4c-0.3,0.1-0.5,0.1-0.6,0.1
	c-0.7,0-1.1-0.3-1.3-0.8c-0.1-0.1-0.4-1-1-2.5c-0.6-1.5-1.2-3.6-1.8-6.3c-0.6,1.4-1.2,2.6-2,3.8c-0.7,1.1-1.5,2.1-2.4,3
	c-0.9,0.8-1.7,1.5-2.7,2c-0.9,0.5-1.8,0.7-2.7,0.7c-3.6,0-6.2-1.2-7.9-3.7c-1.7-2.4-2.6-6.2-2.6-11.2c0-2.1,0.3-3.9,0.9-5.6
	c0.6-1.6,1.4-3,2.4-4.3c1-1.2,2.1-2.2,3.3-3.1c1.2-0.8,2.4-1.5,3.6-2c1.2-0.5,2.3-0.9,3.3-1.1c1-0.2,1.8-0.3,2.4-0.3
	c1,0,1.9,0.2,2.7,0.6c0.8,0.4,1.4,0.9,1.9,1.4c0.5,0.5,0.9,1,1.1,1.4c0.2,0.4,0.4,1.8,0.4,1.8 M56.9,45.6c0.7,0,1.5-0.3,2.4-1
	c0.9-0.7,1.7-1.6,2.5-2.7c0.8-1.1,1.6-2.5,2.2-4c0.7-1.5,1.1-3.2,1.5-4.9c-0.2-1.7-0.4-3.4-0.6-5.3c-0.1-1.8-0.2-3.8-0.3-5.9
	c-0.4-0.3-0.6-0.7-0.6-1.1c-0.2-0.1-0.5-0.2-0.8-0.3c-0.3-0.1-0.5-0.1-0.9-0.1c-0.5,0-1.1,0.1-1.9,0.3c-0.8,0.2-1.7,0.5-2.7,0.9
	c-1,0.4-2,1-3,1.7c-1,0.7-1.9,1.5-2.7,2.6c-0.8,1-1.5,2.2-2,3.5c-0.5,1.3-0.8,2.8-0.8,4.5c0,2.6,0.2,4.8,0.7,6.3
	c0.4,1.6,1,2.8,1.7,3.6c0.7,0.8,1.5,1.4,2.4,1.6C55,45.5,56,45.6,56.9,45.6z"/>
<path fill="none" stroke="#000000" stroke-width="1.1151" stroke-miterlimit="10" d="M76.2,18.4c0.5-0.7,2.2-1.3,2.5-1.1
	c0.3,0.2,0.4,0.5,0.5,0.9c0,0.1,0,0.3,0.1,0.7c0.1,0.4,0.1,0.9,0.2,1.5c0.1,0.6,0.2,1.3,0.3,2.1c0.1,0.8,0.2,1.6,0.3,2.4
	c0.5-1,1.1-1.9,1.9-2.9c0.7-0.9,1.5-1.8,2.5-2.5c1-0.7,2-1.3,3.2-1.8c1.2-0.5,2.5-0.7,4-0.7c1.4,0,2.7,0.3,3.9,0.9
	c1.2,0.6,2.2,1.3,3,2.3c0.8,0.9,1.5,2,2,3.2c0.5,1.2,0.7,2.4,0.7,3.6c0,1,0,2,0.1,3c0.1,0.9,0.2,1.8,0.3,2.6c0.1,0.7,0.1,1.4,0.2,2
	c0.1,0.7,0.1,1.3,0.1,1.9c0,1.4,0.1,2.5,0.2,3.3c0,0.3,0.1,0.6,0.1,0.9c0,0.3,0,0.5,0,0.8c0,0.5,0.1,1,0.2,1.5
	c0.1,0.5,0.3,1,0.4,1.5c0.2,0.5,0.3,0.9,0.5,1.3c0.2,0.4,0.3,0.7,0.4,0.9s0.2,0.5,0.2,0.7c0,0.6-0.2,1-0.7,1.3
	c-0.1,0.1-0.3,0.1-0.4,0.2c-0.1,0-0.2,0.1-0.4,0.1c-0.6,0-1-0.3-1.3-0.8c0,0-0.2-0.3-0.4-0.7c-0.2-0.4-0.4-0.9-0.7-1.5
	c-0.2-0.6-0.4-1.3-0.6-2.1c-0.2-0.8-0.3-1.5-0.3-2.3c0-0.2,0-0.4,0-0.6c0-0.2,0-0.5-0.1-0.8c0-0.5-0.1-1-0.1-1.6
	c0-0.6-0.1-1.3-0.1-2.1c0-0.5,0-1.1-0.1-1.6c-0.1-0.6-0.1-1.2-0.2-1.9c-0.1-0.9-0.2-1.8-0.3-2.8c-0.1-1-0.1-2-0.1-3.2
	c0-0.7-0.1-1.5-0.4-2.3c-0.3-0.8-0.7-1.6-1.3-2.3c-0.6-0.7-1.2-1.3-2.1-1.7c-0.8-0.5-1.8-0.7-2.8-0.7c-1.4,0-2.6,0.3-3.6,0.8
	c-1.1,0.5-2,1.1-2.7,1.9c-0.8,0.8-1.4,1.6-2,2.5c-0.5,0.9-1,1.7-1.3,2.5c-0.3,0.8-0.5,1.5-0.7,2c-0.2,0.6-0.2,0.9-0.2,0.9
	c-0.1,0.3-0.2,0.6-0.4,0.7v0.9c0,0.8,0.1,1.8,0.4,2.9c0.2,1.1,0.5,2.2,0.8,3.4c0.4,1.6,0.8,3.2,1.1,4.9c0.4,1.7,0.5,3.4,0.5,5.2
	c0,0.4-0.1,0.8-0.4,1c-0.3,0.3-0.6,0.4-1,0.4c-0.4,0-0.7-0.1-1-0.4c-0.3-0.3-0.4-0.6-0.4-1c0-1.6-0.2-3.2-0.5-4.8
	c-0.3-1.6-0.7-3.1-1.1-4.6c-0.3-1.3-0.7-2.5-0.9-3.7c-0.3-1.2-0.4-2.3-0.4-3.3c0-1-0.1-2.3-0.2-3.8c-0.1-1.5-0.3-3-0.5-4.5
	c-0.2-1.4-0.4-2.7-0.5-3.8C76.3,19.1,76.2,18.5,76.2,18.4"/>
<path fill="none" stroke="#000000" stroke-width="1.1151" stroke-miterlimit="10" d="M129.7,20.2l0.2,1.4c0,0.1,0,0.1,0,0.2
	c0,0.1,0,0.2-0.1,0.4c0,0.2,0,0.7,0,1.4c0,0.7,0,2,0,3.8c0,0.8,0,1.8,0.1,3c0.1,1.2,0.2,2.5,0.3,3.9c0.1,1.4,0.3,2.9,0.4,4.5
	c0.1,1.6,0.3,3.2,0.5,4.8c0.1,1.6,0.3,3.1,0.4,4.6c0.2,1.5,0.3,2.9,0.4,4.2c0.1,1.3,0.2,2.5,0.3,3.6c0.1,1.1,0.1,2,0.1,2.7
	c0,1.3-0.2,2.5-0.7,3.7c-0.5,1.2-1.2,2.3-2.1,3.3c-0.9,1-2.1,1.8-3.5,2.4c-1.4,0.6-3,0.9-4.8,0.9c-5.2,0-8.8-2.8-11.1-8.5
	c-0.1-0.1-0.1-0.3-0.1-0.6c0-0.6,0.3-1.1,0.9-1.4c0.1,0,0.2-0.1,0.3-0.1c0.1,0,0.2,0,0.3,0c0.6,0,1.1,0.3,1.4,1
	c0.2,0.5,0.4,1.1,0.8,1.8c0.4,0.7,0.9,1.5,1.5,2.2c0.6,0.7,1.4,1.3,2.4,1.8c1,0.5,2.2,0.8,3.6,0.8c1.5,0,2.8-0.2,3.8-0.7
	c1-0.5,1.9-1.1,2.5-1.9c0.6-0.7,1.1-1.6,1.4-2.4c0.3-0.9,0.4-1.7,0.4-2.4c0-0.7,0-1.6-0.1-2.6c-0.1-1.1-0.2-2.2-0.3-3.5
	c-0.1-1.3-0.2-2.7-0.4-4.1c-0.1-1.4-0.3-2.9-0.4-4.4c-0.7,1-1.4,2-2.2,2.8c-0.8,0.8-1.6,1.5-2.4,2.1c-0.8,0.6-1.6,1-2.4,1.3
	c-0.8,0.3-1.5,0.4-2.2,0.4c-1.4,0-2.7-0.3-4-0.8c-1.3-0.5-2.5-1.3-3.6-2.2c-1-1-1.9-2.2-2.6-3.7c-0.7-1.5-1-3.2-1-5.1
	c0-1.2,0.2-2.6,0.5-4c0.3-1.5,0.7-2.9,1.3-4.4c0.5-1.5,1.2-2.9,1.9-4.3c0.7-1.4,1.6-2.6,2.4-3.7c0.9-1.1,1.8-1.9,2.8-2.6
	c1-0.6,2-1,3-1c0.7,0,1.3,0.2,1.8,0.5c0.2,0,0.3-0.1,0.5-0.1c0.2,0,0.4,0,0.6,0c0.6,0,1.3,0.2,2.1,0.7c0.8,0.5,1.5,1.2,2.2,2
	c0.1-0.4,0.9-2.5,2.6-2.3 M127,39.8c0.1-0.3,0.3-0.6,0.7-0.7c-0.2-2.4-0.4-4.6-0.6-6.7c-0.2-2.1-0.2-3.7-0.2-5v-0.6
	c-0.3-0.2-0.6-0.4-0.7-0.7c-0.7-1.4-1.5-2.3-2.2-2.9c-0.7-0.6-1.2-0.9-1.4-0.9c-0.6,0-1.1,0-1.6,0.1c-0.5,0.1-0.8,0.1-1,0.2
	c-0.5,0-0.8-0.2-1.1-0.5c-0.9,0.3-1.8,1.1-2.7,2.4c-1,1.2-1.8,2.6-2.6,4.3c-0.8,1.6-1.5,3.3-2,5.2c-0.5,1.8-0.8,3.5-0.8,5
	c0,1.6,0.3,3,0.8,4.1c0.6,1.1,1.3,2,2.1,2.7c0.8,0.7,1.7,1.2,2.7,1.5c1,0.3,1.8,0.5,2.6,0.5c0.5,0,1.1-0.2,1.9-0.5
	c0.7-0.4,1.4-0.9,2.2-1.6c0.7-0.7,1.5-1.5,2.2-2.5C125.9,42.1,126.5,41,127,39.8z"/>
<path fill="none" stroke="#000000" stroke-width="1.1151" d="M142.2,30.5v0.9c0,0.9,0.1,1.8,0.4,2.9c0.3,1.1,0.5,2.2,0.8,3.4
	c0.4,1.6,0.8,3.2,1.2,4.9c0.4,1.7,0.5,3.4,0.5,5.2c0,0.4-0.1,0.7-0.4,1c-0.3,0.3-0.6,0.4-1,0.4c-0.4,0-0.8-0.1-1-0.4
	c-0.3-0.3-0.4-0.6-0.4-1c0-1.6-0.2-3.2-0.5-4.8c-0.3-1.6-0.7-3.1-1.1-4.6c-0.3-1.3-0.7-2.6-0.9-3.8c-0.3-1.2-0.4-2.3-0.4-3.3
	c0-1-0.1-2.3-0.2-3.8c-0.1-1.5-0.3-3-0.5-4.4c-0.2-1.4-0.4-2.7-0.5-3.8c-0.1-1.1-0.2-1.6-0.2-1.7c0-0.4,0.1-0.7,0.4-1
	c0.2-0.3,0.6-0.4,1.1-0.5c0.3,0,0.7,0.1,0.9,0.3c0.3,0.2,0.4,0.5,0.5,0.9c0,0.1,0,0.3,0.1,0.7c0.1,0.4,0.1,0.8,0.2,1.4
	c0.1,0.6,0.2,1.3,0.3,2.1c0.1,0.8,0.2,1.6,0.3,2.4c0.5-1,1.1-1.9,1.9-2.9c0.7-0.9,1.6-1.8,2.5-2.5c1-0.7,2-1.3,3.2-1.8
	c1.2-0.5,2.5-0.7,3.9-0.7c1.1,0,2.2,0.2,3.1,0.5c1,0.4,1.8,0.9,2.6,1.5c0.8,0.6,1.4,1.3,2,2.1c0.6,0.8,1,1.7,1.3,2.6
	c0.3-0.4,0.6-0.7,0.9-1.1c0.3-0.3,0.6-0.6,0.9-0.8c0.2-0.1,0.4-0.2,0.7-0.4c0.5-0.3,1-0.6,1.6-1c0.6-0.4,1.3-0.7,2-1.1
	c0.7-0.3,1.5-0.6,2.2-0.9c0.8-0.2,1.5-0.3,2.2-0.3c0.3,0,0.7,0,1.2,0c0.5,0,1.1,0.1,1.6,0.2c0.6,0.1,1.2,0.3,1.8,0.6
	c0.6,0.3,1.2,0.7,1.7,1.2c1.3,1.4,2,3.3,2,5.6c0,2.1,0,3.6-0.1,4.6c-0.1,1-0.1,1.9-0.1,2.5c0,0.4-0.1,0.7-0.1,1.1c0,0.3,0,0.7,0,1.2
	c0,0.5,0,1,0.1,1.5c0.1,0.5,0.1,0.9,0.2,1.4c0.1,0.5,0.2,1,0.3,1.5c0.1,0.5,0.1,1.1,0.1,1.7c0,0.4,0,0.8-0.1,1.3
	c0,0.4-0.1,0.8-0.2,1.2c-0.1,0.4-0.1,0.7-0.2,1.1c0,0.3-0.1,0.7-0.1,1c0,0.6,0.1,1.2,0.3,1.7c0,0.1,0.1,0.2,0.1,0.3
	c0,0.1,0,0.2,0,0.3c0,0.6-0.3,1.1-0.9,1.4c-0.3,0.1-0.5,0.1-0.5,0.1c-0.7,0-1.1-0.3-1.4-0.9c-0.2-0.5-0.3-1-0.4-1.4
	c-0.1-0.5-0.1-0.9-0.1-1.4c0-0.5,0-0.9,0.1-1.3c0-0.4,0.1-0.8,0.2-1.2c0.1-0.4,0.1-0.7,0.2-1.1c0-0.3,0.1-0.7,0.1-1
	c0-0.5,0-0.9-0.1-1.4c-0.1-0.4-0.2-0.9-0.3-1.3c-0.1-0.5-0.1-1.1-0.2-1.6c-0.1-0.6-0.1-1.2-0.1-1.8c0-0.5,0-0.9,0-1.3
	c0-0.4,0-0.8,0.1-1.1c0-0.6,0.1-1.4,0.1-2.5c0-1,0.1-2.5,0.1-4.5c0-1.6-0.4-2.8-1.1-3.6c-0.6-0.6-1.4-1-2.3-1.1
	c-0.9-0.1-1.6-0.2-2.1-0.2c-0.5,0-1,0.1-1.6,0.3c-0.6,0.2-1.2,0.5-1.8,0.8c-0.6,0.3-1.2,0.6-1.7,0.9c-0.5,0.3-1,0.6-1.3,0.8
	c-0.2,0.1-0.3,0.2-0.5,0.3c-0.1,0.1-0.3,0.1-0.4,0.2c-0.2,0.1-0.5,0.4-0.8,0.9c-0.4,0.5-0.7,1.1-1,1.6c-0.2,0.3-0.5,0.5-0.8,0.6
	c0,0.9,0,1.8,0.1,2.6c0.1,0.8,0.2,1.5,0.2,2.2c0.1,0.7,0.1,1.4,0.2,2c0.1,0.6,0.1,1.3,0.1,1.9c0,0.7,0,1.4,0.1,1.9
	c0,0.5,0.1,1,0.1,1.5c0.1,0.6,0.2,1.2,0.2,1.7c0,0.5,0.1,1,0.2,1.5c0.1,0.5,0.3,1,0.4,1.5c0.2,0.5,0.3,0.9,0.5,1.3
	c0.2,0.4,0.3,0.7,0.4,0.9c0.1,0.2,0.2,0.4,0.2,0.7c0,0.3-0.1,0.5-0.2,0.8c-0.1,0.2-0.3,0.4-0.6,0.5c-0.2,0.1-0.4,0.2-0.7,0.2
	c-0.6,0-1-0.2-1.3-0.7c0,0-0.1-0.3-0.3-0.7c-0.2-0.4-0.4-0.9-0.7-1.5c-0.2-0.6-0.4-1.3-0.6-2.1c-0.2-0.8-0.3-1.5-0.3-2.3
	c0-0.2,0-0.4,0-0.6c0-0.2,0-0.5-0.1-0.8c-0.1-0.5-0.1-1-0.2-1.6c0-0.6-0.1-1.3-0.1-2.1c0-0.5,0-1-0.1-1.6c-0.1-0.6-0.1-1.2-0.2-1.9
	c-0.1-0.9-0.2-1.8-0.3-2.8c-0.1-1-0.2-2-0.2-3.2c0-0.7-0.1-1.5-0.4-2.3c-0.3-0.8-0.7-1.6-1.3-2.2c-0.6-0.7-1.2-1.2-2.1-1.7
	c-0.8-0.5-1.8-0.7-2.8-0.7c-1.4,0-2.6,0.3-3.6,0.8c-1.1,0.5-2,1.2-2.8,1.9c-0.8,0.8-1.4,1.6-2,2.5c-0.5,0.9-0.9,1.7-1.3,2.5
	c-0.3,0.8-1.3,2.5-1.4,3.1"/>
<path fill="none" stroke="#000000" stroke-width="1.1151" d="M209.5,32.9c0.3,2.2,0.7,4.1,1.1,5.8c0.4,1.7,0.8,3.2,1.2,4.3
	c0.4,1.2,0.7,2.1,0.9,2.7c0.3,0.6,0.4,1,0.4,1c0,0.1,0.1,0.2,0.1,0.3c0,0.1,0,0.2,0,0.3c0,0.6-0.3,1.1-0.8,1.4
	c-0.3,0.1-0.5,0.1-0.6,0.1c-0.7,0-1.1-0.3-1.3-0.8c-0.1-0.1-0.4-1-1-2.5c-0.6-1.5-1.2-3.6-1.8-6.3c-0.6,1.4-1.2,2.6-2,3.8
	c-0.7,1.1-1.5,2.1-2.4,3c-0.9,0.8-1.7,1.5-2.7,2c-0.9,0.5-1.8,0.7-2.7,0.7c-3.6,0-6.2-1.2-7.9-3.7c-1.7-2.4-2.6-6.2-2.6-11.2
	c0-2.1,0.3-3.9,0.9-5.6c0.6-1.6,1.4-3,2.4-4.3c1-1.2,2.1-2.2,3.3-3.1c1.2-0.8,2.4-1.5,3.6-2c1.2-0.5,2.3-0.9,3.3-1.1
	c1-0.2,1.8-0.3,2.4-0.3c1,0,1.9,0.2,2.7,0.6c0.8,0.4,1.4,0.9,1.9,1.4c0.5,0.5,0.9,1,1.1,1.4c0.2,0.4,0.4,0.7,0.4,0.7
	c0.1,0.2,0.2,0.4,0.2,0.6c0,0.3-0.2,0.7-0.5,1.1c0.3,1.6,0.5,3.8,0.5,6.5c0,0.6,0,1.1-0.1,1.7C209.7,31.7,209.6,32.3,209.5,32.9z
	 M205.7,21.2c-0.5-0.7-1.8-1-2.1-1c-0.5,0-1.1,0.1-1.9,0.3c-0.8,0.2-1.7,0.5-2.7,0.9c-1,0.4-2,1-3,1.7c-1,0.7-1.9,1.5-2.7,2.6
	c-0.8,1-1.5,2.2-2,3.5c-0.5,1.3-0.8,2.8-0.8,4.5c0,2.6,0.2,4.8,0.7,6.3c0.4,1.6,1,2.8,1.7,3.6c0.7,0.8,1.5,1.4,2.4,1.6
	c0.9,0.3,1.8,0.4,2.7,0.4c0.7,0,1.5-0.3,2.4-1c0.9-0.7,1.7-1.6,2.5-2.7c0.8-1.1,1.6-2.5,2.2-4c0.7-1.5,1.1-3.2,1.5-4.9
	c-0.2-1.7-0.4-3.4-0.6-5.3c-0.1-1.8-0.2-3.8-0.3-5.9"/>
<path fill="none" stroke="#000000" stroke-width="1.1151" d="M217.3,17.6c0.9-1.1,2.2-0.5,2.4-0.3c0.3,0.2,0.4,0.5,0.5,0.9
	c0,0.1,0,0.3,0.1,0.7c0.1,0.4,0.1,0.9,0.2,1.5c0.1,0.6,0.2,1.3,0.3,2.1c0.1,0.8,0.2,1.6,0.3,2.4c0.5-1,1.1-1.9,1.9-2.9
	c0.7-0.9,1.5-1.8,2.5-2.5c1-0.7,2-1.3,3.2-1.8c1.2-0.5,2.5-0.7,4-0.7c1.4,0,2.7,0.3,3.9,0.9c1.2,0.6,2.2,1.3,3,2.3
	c0.8,0.9,1.5,2,2,3.2c0.5,1.2,0.7,2.4,0.7,3.6c0,1,0,2,0.1,3c0.1,0.9,0.2,1.8,0.3,2.6c0.1,0.7,0.1,1.4,0.2,2
	c0.1,0.7,0.1,1.3,0.1,1.9c0,1.4,0.1,2.5,0.2,3.3c0,0.3,0.1,0.6,0.1,0.9c0,0.3,0,0.5,0,0.8c0,0.5,0.1,1,0.2,1.5
	c0.1,0.5,0.3,1,0.4,1.5s0.3,0.9,0.5,1.3c0.2,0.4,0.3,0.7,0.4,0.9c0.1,0.2,0.2,0.5,0.2,0.7c0,0.6-0.2,1-0.7,1.3
	c-0.1,0.1-0.3,0.1-0.4,0.2c-0.1,0-0.2,0.1-0.4,0.1c-0.6,0-1-0.3-1.3-0.8c0,0-0.2-0.3-0.4-0.7c-0.2-0.4-0.4-0.9-0.7-1.5
	c-0.2-0.6-0.4-1.3-0.6-2.1c-0.2-0.8-0.3-1.5-0.3-2.3c0-0.2,0-0.4,0-0.6c0-0.2,0-0.5-0.1-0.8c0-0.5-0.1-1-0.1-1.6
	c0-0.6-0.1-1.3-0.1-2.1c0-0.5,0-1.1-0.1-1.6c-0.1-0.6-0.1-1.2-0.2-1.9c-0.1-0.9-0.2-1.8-0.3-2.8c-0.1-1-0.1-2-0.1-3.2
	c0-0.7-0.1-1.5-0.4-2.3c-0.3-0.8-0.7-1.6-1.3-2.3c-0.6-0.7-1.2-1.3-2.1-1.7c-0.8-0.5-1.8-0.7-2.8-0.7c-1.4,0-2.6,0.3-3.6,0.8
	c-1.1,0.5-2,1.1-2.7,1.9c-0.8,0.8-1.4,1.6-2,2.5c-0.5,0.9-1,1.7-1.3,2.5c-0.3,0.8-0.5,1.5-0.7,2c-0.2,0.6-0.2,0.9-0.2,0.9
	c-0.1,0.3-0.2,0.6-0.4,0.7v0.9c0,0.8,0.1,1.8,0.4,2.9c0.2,1.1,0.5,2.2,0.8,3.4c0.4,1.6,0.8,3.2,1.1,4.9c0.4,1.7,0.5,3.4,0.5,5.2
	c0,0.4-0.1,0.8-0.4,1c-0.3,0.3-0.6,0.4-1,0.4c-0.4,0-0.7-0.1-1-0.4c-0.3-0.3-0.4-0.6-0.4-1c0-1.6-0.2-3.2-0.5-4.8
	c-0.3-1.6-0.7-3.1-1.1-4.6c-0.3-1.3-0.7-2.5-0.9-3.7c-0.3-1.2-0.4-2.3-0.4-3.3c0-1-0.1-2.3-0.2-3.8c-0.1-1.5-0.3-3-0.5-4.5
	c-0.2-1.4-0.4-2.7-0.5-3.8c-0.2-1.1-0.2-1.6-0.2-1.7"/>
</svg>
